<svg width="289" height="78" viewBox="0 0 289 78" fill="none" xmlns="http://www.w3.org/2000/svg">
<path d="M20.4451 49.1439C10.9417 51.7861 3 55.9683 3 60.6755C3 68.6662 20.6848 75.1439 42.5 75.1439C64.3152 75.1439 82 68.6662 82 60.6755C82 55.9942 74.0584 51.7883 64.6444 49.1439" stroke="#292D32" stroke-width="5.23826"/>
<path d="M37.3145 3.50841L23.575 7.99378C20.4086 9.01969 17.8204 12.2644 17.8204 15.1751V32.9019C17.8204 35.7172 19.968 39.4152 22.5838 41.1092L34.4235 48.7677C38.3058 51.2967 44.6937 51.2967 48.576 48.7677L60.4157 41.1092C63.0314 39.4152 65.1791 35.7172 65.1791 32.9019V15.1751C65.1791 12.2406 62.5909 8.99583 59.4244 7.96992L45.6849 3.50841C43.3445 2.7688 39.5999 2.7688 37.3145 3.50841Z" stroke="#292D32" stroke-width="5.23826" stroke-linecap="round" stroke-linejoin="round"/>
<path d="M41.4723 28.0109C44.5136 28.0109 46.9791 25.8745 46.9791 23.2392C46.9791 20.6039 44.5136 18.4675 41.4723 18.4675C38.4309 18.4675 35.9655 20.6039 35.9655 23.2392C35.9655 25.8745 38.4309 28.0109 41.4723 28.0109Z" stroke="#292D32" stroke-width="5.23826" stroke-miterlimit="10" stroke-linecap="round" stroke-linejoin="round"/>
<path d="M41.4724 28.0109V35.1684" stroke="#292D32" stroke-width="5.23826" stroke-miterlimit="10" stroke-linecap="round" stroke-linejoin="round"/>
<path d="M114.104 24.9559C114.104 26.2573 113.805 27.4519 113.208 28.5399C112.611 29.6066 111.693 30.4706 110.456 31.1319C109.219 31.7933 107.683 32.1239 105.848 32.1239H102.456V40.1879H96.984V17.7239H105.848C107.64 17.7239 109.155 18.0333 110.392 18.6519C111.629 19.2706 112.557 20.1239 113.176 21.2119C113.795 22.2999 114.104 23.5479 114.104 24.9559ZM105.432 27.7719C106.477 27.7719 107.256 27.5266 107.768 27.0359C108.28 26.5453 108.536 25.8519 108.536 24.9559C108.536 24.0599 108.28 23.3666 107.768 22.8759C107.256 22.3853 106.477 22.1399 105.432 22.1399H102.456V27.7719H105.432ZM116.217 35.8039C116.942 35.2279 117.273 34.9613 117.209 35.0039C119.299 33.2759 120.942 31.8573 122.137 30.7479C123.353 29.6386 124.377 28.4759 125.209 27.2599C126.041 26.0439 126.457 24.8599 126.457 23.7079C126.457 22.8333 126.254 22.1506 125.849 21.6599C125.443 21.1693 124.835 20.9239 124.025 20.9239C123.214 20.9239 122.574 21.2333 122.105 21.8519C121.657 22.4493 121.433 23.3026 121.433 24.4119H116.153C116.195 22.5986 116.579 21.0839 117.305 19.8679C118.051 18.6519 119.022 17.7559 120.217 17.1799C121.433 16.6039 122.777 16.3159 124.249 16.3159C126.787 16.3159 128.697 16.9666 129.977 18.2679C131.278 19.5693 131.929 21.2653 131.929 23.3559C131.929 25.6386 131.15 27.7613 129.593 29.7239C128.035 31.6653 126.051 33.5639 123.641 35.4199H132.281V39.8679H116.217V35.8039ZM152.354 24.9559C152.354 26.2573 152.055 27.4519 151.458 28.5399C150.861 29.6066 149.943 30.4706 148.706 31.1319C147.469 31.7933 145.933 32.1239 144.098 32.1239H140.706V40.1879H135.234V17.7239H144.098C145.89 17.7239 147.405 18.0333 148.642 18.6519C149.879 19.2706 150.807 20.1239 151.426 21.2119C152.045 22.2999 152.354 23.5479 152.354 24.9559ZM143.682 27.7719C144.727 27.7719 145.506 27.5266 146.018 27.0359C146.53 26.5453 146.786 25.8519 146.786 24.9559C146.786 24.0599 146.53 23.3666 146.018 22.8759C145.506 22.3853 144.727 22.1399 143.682 22.1399H140.706V27.7719H143.682ZM167.456 35.9639H174.624V40.1879H161.984V17.7239H167.456V35.9639ZM194.066 30.9719C194.066 31.4839 194.034 32.0173 193.97 32.5719H181.586C181.671 33.6813 182.023 34.5346 182.642 35.1319C183.282 35.7079 184.061 35.9959 184.978 35.9959C186.343 35.9959 187.293 35.4199 187.826 34.2679H193.65C193.351 35.4413 192.807 36.4973 192.018 37.4359C191.25 38.3746 190.279 39.1106 189.106 39.6439C187.933 40.1773 186.621 40.4439 185.17 40.4439C183.421 40.4439 181.863 40.0706 180.498 39.3239C179.133 38.5773 178.066 37.5106 177.298 36.1239C176.53 34.7373 176.146 33.1159 176.146 31.2599C176.146 29.4039 176.519 27.7826 177.266 26.3959C178.034 25.0093 179.101 23.9426 180.466 23.1959C181.831 22.4493 183.399 22.0759 185.17 22.0759C186.898 22.0759 188.434 22.4386 189.778 23.1639C191.122 23.8893 192.167 24.9239 192.914 26.2679C193.682 27.6119 194.066 29.1799 194.066 30.9719ZM188.466 29.5319C188.466 28.5933 188.146 27.8466 187.506 27.2919C186.866 26.7373 186.066 26.4599 185.106 26.4599C184.189 26.4599 183.41 26.7266 182.77 27.2599C182.151 27.7933 181.767 28.5506 181.618 29.5319H188.466ZM207.833 22.1399C209.923 22.1399 211.587 22.8226 212.825 24.1879C214.083 25.5319 214.713 27.3879 214.713 29.7559V40.1879H209.273V30.4919C209.273 29.2973 208.963 28.3693 208.345 27.7079C207.726 27.0466 206.894 26.7159 205.849 26.7159C204.803 26.7159 203.971 27.0466 203.353 27.7079C202.734 28.3693 202.425 29.2973 202.425 30.4919V40.1879H196.953V22.3319H202.425V24.6999C202.979 23.9106 203.726 23.2919 204.665 22.8439C205.603 22.3746 206.659 22.1399 207.833 22.1399ZM217.427 31.2279C217.427 29.3933 217.769 27.7826 218.451 26.3959C219.155 25.0093 220.105 23.9426 221.299 23.1959C222.494 22.4493 223.827 22.0759 225.299 22.0759C226.473 22.0759 227.539 22.3213 228.499 22.8119C229.481 23.3026 230.249 23.9639 230.803 24.7959V16.5079H236.275V40.1879H230.803V37.6279C230.291 38.4813 229.555 39.1639 228.595 39.6759C227.657 40.1879 226.558 40.4439 225.299 40.4439C223.827 40.4439 222.494 40.0706 221.299 39.3239C220.105 38.5559 219.155 37.4786 218.451 36.0919C217.769 34.6839 217.427 33.0626 217.427 31.2279ZM230.803 31.2599C230.803 29.8946 230.419 28.8173 229.651 28.0279C228.905 27.2386 227.987 26.8439 226.899 26.8439C225.811 26.8439 224.883 27.2386 224.115 28.0279C223.369 28.7959 222.995 29.8626 222.995 31.2279C222.995 32.5933 223.369 33.6813 224.115 34.4919C224.883 35.2813 225.811 35.6759 226.899 35.6759C227.987 35.6759 228.905 35.2813 229.651 34.4919C230.419 33.7026 230.803 32.6253 230.803 31.2599ZM242.986 20.4759C242.026 20.4759 241.237 20.1986 240.618 19.6439C240.021 19.0679 239.722 18.3639 239.722 17.5319C239.722 16.6786 240.021 15.9746 240.618 15.4199C241.237 14.8439 242.026 14.5559 242.986 14.5559C243.925 14.5559 244.693 14.8439 245.29 15.4199C245.909 15.9746 246.218 16.6786 246.218 17.5319C246.218 18.3639 245.909 19.0679 245.29 19.6439C244.693 20.1986 243.925 20.4759 242.986 20.4759ZM245.706 22.3319V40.1879H240.234V22.3319H245.706ZM260.552 22.1399C262.642 22.1399 264.306 22.8226 265.544 24.1879C266.802 25.5319 267.432 27.3879 267.432 29.7559V40.1879H261.992V30.4919C261.992 29.2973 261.682 28.3693 261.064 27.7079C260.445 27.0466 259.613 26.7159 258.568 26.7159C257.522 26.7159 256.69 27.0466 256.072 27.7079C255.453 28.3693 255.144 29.2973 255.144 30.4919V40.1879H249.672V22.3319H255.144V24.6999C255.698 23.9106 256.445 23.2919 257.384 22.8439C258.322 22.3746 259.378 22.1399 260.552 22.1399ZM278.018 22.0759C279.277 22.0759 280.375 22.3319 281.314 22.8439C282.274 23.3559 283.01 24.0279 283.522 24.8599V22.3319H288.994V40.1559C288.994 41.7986 288.663 43.2813 288.002 44.6039C287.362 45.9479 286.37 47.0146 285.026 47.8039C283.703 48.5933 282.05 48.9879 280.066 48.9879C277.421 48.9879 275.277 48.3586 273.634 47.0999C271.991 45.8626 271.053 44.1773 270.818 42.0439H276.226C276.397 42.7266 276.802 43.2599 277.442 43.6439C278.082 44.0493 278.871 44.2519 279.81 44.2519C280.941 44.2519 281.837 43.9213 282.498 43.2599C283.181 42.6199 283.522 41.5853 283.522 40.1559V37.6279C282.989 38.4599 282.253 39.1426 281.314 39.6759C280.375 40.1879 279.277 40.4439 278.018 40.4439C276.546 40.4439 275.213 40.0706 274.018 39.3239C272.823 38.5559 271.874 37.4786 271.17 36.0919C270.487 34.6839 270.146 33.0626 270.146 31.2279C270.146 29.3933 270.487 27.7826 271.17 26.3959C271.874 25.0093 272.823 23.9426 274.018 23.1959C275.213 22.4493 276.546 22.0759 278.018 22.0759ZM283.522 31.2599C283.522 29.8946 283.138 28.8173 282.37 28.0279C281.623 27.2386 280.706 26.8439 279.618 26.8439C278.53 26.8439 277.602 27.2386 276.834 28.0279C276.087 28.7959 275.714 29.8626 275.714 31.2279C275.714 32.5933 276.087 33.6813 276.834 34.4919C277.602 35.2813 278.53 35.6759 279.618 35.6759C280.706 35.6759 281.623 35.2813 282.37 34.4919C283.138 33.7026 283.522 32.6253 283.522 31.2599Z" fill="black"/>
<path d="M102.594 57.4299V58.4659H98.352V61.7559H101.796V62.7919H98.352V67.1879H97.078V57.4299H102.594ZM105.407 60.7619C105.631 60.3233 105.948 59.9826 106.359 59.7399C106.779 59.4973 107.287 59.3759 107.885 59.3759V60.6919H107.549C106.121 60.6919 105.407 61.4666 105.407 63.0159V67.1879H104.133V59.5159H105.407V60.7619ZM110.013 58.2699C109.771 58.2699 109.565 58.1859 109.397 58.0179C109.229 57.8499 109.145 57.6446 109.145 57.4019C109.145 57.1593 109.229 56.9539 109.397 56.7859C109.565 56.6179 109.771 56.5339 110.013 56.5339C110.247 56.5339 110.443 56.6179 110.601 56.7859C110.769 56.9539 110.853 57.1593 110.853 57.4019C110.853 57.6446 110.769 57.8499 110.601 58.0179C110.443 58.1859 110.247 58.2699 110.013 58.2699ZM110.629 59.5159V67.1879H109.355V59.5159H110.629ZM112.325 63.3379C112.325 62.5446 112.483 61.8539 112.801 61.2659C113.118 60.6686 113.557 60.2066 114.117 59.8799C114.686 59.5533 115.335 59.3899 116.063 59.3899C117.005 59.3899 117.78 59.6186 118.387 60.0759C119.003 60.5333 119.409 61.1679 119.605 61.9799H118.233C118.102 61.5133 117.845 61.1446 117.463 60.8739C117.089 60.6033 116.623 60.4679 116.063 60.4679C115.335 60.4679 114.747 60.7199 114.299 61.2239C113.851 61.7186 113.627 62.4233 113.627 63.3379C113.627 64.2619 113.851 64.9759 114.299 65.4799C114.747 65.9839 115.335 66.2359 116.063 66.2359C116.623 66.2359 117.089 66.1053 117.463 65.8439C117.836 65.5826 118.093 65.2093 118.233 64.7239H119.605C119.399 65.5079 118.989 66.1379 118.373 66.6139C117.757 67.0806 116.987 67.3139 116.063 67.3139C115.335 67.3139 114.686 67.1506 114.117 66.8239C113.557 66.4973 113.118 66.0353 112.801 65.4379C112.483 64.8406 112.325 64.1406 112.325 63.3379ZM122.859 60.5659V65.0879C122.859 65.4613 122.938 65.7273 123.097 65.8859C123.255 66.0353 123.531 66.1099 123.923 66.1099H124.861V67.1879H123.713C123.003 67.1879 122.471 67.0246 122.117 66.6979C121.762 66.3713 121.585 65.8346 121.585 65.0879V60.5659H120.591V59.5159H121.585V57.5839H122.859V59.5159H124.861V60.5659H122.859ZM127.062 58.2699C126.82 58.2699 126.614 58.1859 126.446 58.0179C126.278 57.8499 126.194 57.6446 126.194 57.4019C126.194 57.1593 126.278 56.9539 126.446 56.7859C126.614 56.6179 126.82 56.5339 127.062 56.5339C127.296 56.5339 127.492 56.6179 127.65 56.7859C127.818 56.9539 127.902 57.1593 127.902 57.4019C127.902 57.6446 127.818 57.8499 127.65 58.0179C127.492 58.1859 127.296 58.2699 127.062 58.2699ZM127.678 59.5159V67.1879H126.404V59.5159H127.678ZM133.195 67.3139C132.477 67.3139 131.823 67.1506 131.235 66.8239C130.657 66.4973 130.199 66.0353 129.863 65.4379C129.537 64.8313 129.373 64.1313 129.373 63.3379C129.373 62.5539 129.541 61.8633 129.877 61.2659C130.223 60.6593 130.689 60.1973 131.277 59.8799C131.865 59.5533 132.523 59.3899 133.251 59.3899C133.979 59.3899 134.637 59.5533 135.225 59.8799C135.813 60.1973 136.275 60.6546 136.611 61.2519C136.957 61.8493 137.129 62.5446 137.129 63.3379C137.129 64.1313 136.952 64.8313 136.597 65.4379C136.252 66.0353 135.781 66.4973 135.183 66.8239C134.586 67.1506 133.923 67.3139 133.195 67.3139ZM133.195 66.1939C133.653 66.1939 134.082 66.0866 134.483 65.8719C134.885 65.6573 135.207 65.3353 135.449 64.9059C135.701 64.4766 135.827 63.9539 135.827 63.3379C135.827 62.7219 135.706 62.1993 135.463 61.7699C135.221 61.3406 134.903 61.0233 134.511 60.8179C134.119 60.6033 133.695 60.4959 133.237 60.4959C132.771 60.4959 132.341 60.6033 131.949 60.8179C131.567 61.0233 131.259 61.3406 131.025 61.7699C130.792 62.1993 130.675 62.7219 130.675 63.3379C130.675 63.9633 130.787 64.4906 131.011 64.9199C131.245 65.3493 131.553 65.6713 131.935 65.8859C132.318 66.0913 132.738 66.1939 133.195 66.1939ZM142.543 59.3759C143.476 59.3759 144.232 59.6606 144.811 60.2299C145.389 60.7899 145.679 61.6019 145.679 62.6659V67.1879H144.419V62.8479C144.419 62.0826 144.227 61.4993 143.845 61.0979C143.462 60.6873 142.939 60.4819 142.277 60.4819C141.605 60.4819 141.068 60.6919 140.667 61.1119C140.275 61.5319 140.079 62.1433 140.079 62.9459V67.1879H138.805V59.5159H140.079V60.6079C140.331 60.2159 140.671 59.9126 141.101 59.6979C141.539 59.4833 142.02 59.3759 142.543 59.3759ZM149.034 56.8279V67.1879H147.76V56.8279H149.034ZM158.205 63.0579C158.205 63.3006 158.191 63.5573 158.163 63.8279H152.031C152.078 64.5839 152.334 65.1766 152.801 65.6059C153.277 66.0259 153.851 66.2359 154.523 66.2359C155.074 66.2359 155.531 66.1099 155.895 65.8579C156.268 65.5966 156.53 65.2513 156.679 64.8219H158.051C157.846 65.5593 157.435 66.1613 156.819 66.6279C156.203 67.0853 155.438 67.3139 154.523 67.3139C153.795 67.3139 153.142 67.1506 152.563 66.8239C151.994 66.4973 151.546 66.0353 151.219 65.4379C150.892 64.8313 150.729 64.1313 150.729 63.3379C150.729 62.5446 150.888 61.8493 151.205 61.2519C151.522 60.6546 151.966 60.1973 152.535 59.8799C153.114 59.5533 153.776 59.3899 154.523 59.3899C155.251 59.3899 155.895 59.5486 156.455 59.8659C157.015 60.1833 157.444 60.6219 157.743 61.1819C158.051 61.7326 158.205 62.3579 158.205 63.0579ZM156.889 62.7919C156.889 62.3066 156.782 61.8913 156.567 61.5459C156.352 61.1913 156.058 60.9253 155.685 60.7479C155.321 60.5613 154.915 60.4679 154.467 60.4679C153.823 60.4679 153.272 60.6733 152.815 61.0839C152.367 61.4946 152.11 62.0639 152.045 62.7919H156.889ZM162.603 67.3139C162.015 67.3139 161.487 67.2159 161.021 67.0199C160.554 66.8146 160.185 66.5346 159.915 66.1799C159.644 65.8159 159.495 65.4006 159.467 64.9339H160.783C160.82 65.3166 160.997 65.6293 161.315 65.8719C161.641 66.1146 162.066 66.2359 162.589 66.2359C163.074 66.2359 163.457 66.1286 163.737 65.9139C164.017 65.6993 164.157 65.4286 164.157 65.1019C164.157 64.7659 164.007 64.5186 163.709 64.3599C163.41 64.1919 162.948 64.0286 162.323 63.8699C161.753 63.7206 161.287 63.5713 160.923 63.4219C160.568 63.2633 160.26 63.0346 159.999 62.7359C159.747 62.4279 159.621 62.0266 159.621 61.5319C159.621 61.1399 159.737 60.7806 159.971 60.4539C160.204 60.1273 160.535 59.8706 160.965 59.6839C161.394 59.4879 161.884 59.3899 162.435 59.3899C163.284 59.3899 163.97 59.6046 164.493 60.0339C165.015 60.4633 165.295 61.0513 165.333 61.7979H164.059C164.031 61.3966 163.867 61.0746 163.569 60.8319C163.279 60.5893 162.887 60.4679 162.393 60.4679C161.935 60.4679 161.571 60.5659 161.301 60.7619C161.03 60.9579 160.895 61.2146 160.895 61.5319C160.895 61.7839 160.974 61.9939 161.133 62.1619C161.301 62.3206 161.506 62.4513 161.749 62.5539C162.001 62.6473 162.346 62.7546 162.785 62.8759C163.335 63.0253 163.783 63.1746 164.129 63.3239C164.474 63.4639 164.768 63.6786 165.011 63.9679C165.263 64.2573 165.393 64.6353 165.403 65.1019C165.403 65.5219 165.286 65.8999 165.053 66.2359C164.819 66.5719 164.488 66.8379 164.059 67.0339C163.639 67.2206 163.153 67.3139 162.603 67.3139ZM169.917 67.3139C169.329 67.3139 168.802 67.2159 168.335 67.0199C167.868 66.8146 167.5 66.5346 167.229 66.1799C166.958 65.8159 166.809 65.4006 166.781 64.9339H168.097C168.134 65.3166 168.312 65.6293 168.629 65.8719C168.956 66.1146 169.38 66.2359 169.903 66.2359C170.388 66.2359 170.771 66.1286 171.051 65.9139C171.331 65.6993 171.471 65.4286 171.471 65.1019C171.471 64.7659 171.322 64.5186 171.023 64.3599C170.724 64.1919 170.262 64.0286 169.637 63.8699C169.068 63.7206 168.601 63.5713 168.237 63.4219C167.882 63.2633 167.574 63.0346 167.313 62.7359C167.061 62.4279 166.935 62.0266 166.935 61.5319C166.935 61.1399 167.052 60.7806 167.285 60.4539C167.518 60.1273 167.85 59.8706 168.279 59.6839C168.708 59.4879 169.198 59.3899 169.749 59.3899C170.598 59.3899 171.284 59.6046 171.807 60.0339C172.33 60.4633 172.61 61.0513 172.647 61.7979H171.373C171.345 61.3966 171.182 61.0746 170.883 60.8319C170.594 60.5893 170.202 60.4679 169.707 60.4679C169.25 60.4679 168.886 60.5659 168.615 60.7619C168.344 60.9579 168.209 61.2146 168.209 61.5319C168.209 61.7839 168.288 61.9939 168.447 62.1619C168.615 62.3206 168.82 62.4513 169.063 62.5539C169.315 62.6473 169.66 62.7546 170.099 62.8759C170.65 63.0253 171.098 63.1746 171.443 63.3239C171.788 63.4639 172.082 63.6786 172.325 63.9679C172.577 64.2573 172.708 64.6353 172.717 65.1019C172.717 65.5219 172.6 65.8999 172.367 66.2359C172.134 66.5719 171.802 66.8379 171.373 67.0339C170.953 67.2206 170.468 67.3139 169.917 67.3139ZM191.878 57.4999V67.1879H190.604V59.9639L187.384 67.1879H186.488L183.254 59.9499V67.1879H181.98V57.4999H183.352L186.936 65.5079L190.52 57.4999H191.878ZM197.385 67.3139C196.666 67.3139 196.013 67.1506 195.425 66.8239C194.846 66.4973 194.389 66.0353 194.053 65.4379C193.726 64.8313 193.563 64.1313 193.563 63.3379C193.563 62.5539 193.731 61.8633 194.067 61.2659C194.412 60.6593 194.879 60.1973 195.467 59.8799C196.055 59.5533 196.713 59.3899 197.441 59.3899C198.169 59.3899 198.827 59.5533 199.415 59.8799C200.003 60.1973 200.465 60.6546 200.801 61.2519C201.146 61.8493 201.319 62.5446 201.319 63.3379C201.319 64.1313 201.142 64.8313 200.787 65.4379C200.442 66.0353 199.97 66.4973 199.373 66.8239C198.776 67.1506 198.113 67.3139 197.385 67.3139ZM197.385 66.1939C197.842 66.1939 198.272 66.0866 198.673 65.8719C199.074 65.6573 199.396 65.3353 199.639 64.9059C199.891 64.4766 200.017 63.9539 200.017 63.3379C200.017 62.7219 199.896 62.1993 199.653 61.7699C199.41 61.3406 199.093 61.0233 198.701 60.8179C198.309 60.6033 197.884 60.4959 197.427 60.4959C196.96 60.4959 196.531 60.6033 196.139 60.8179C195.756 61.0233 195.448 61.3406 195.215 61.7699C194.982 62.1993 194.865 62.7219 194.865 63.3379C194.865 63.9633 194.977 64.4906 195.201 64.9199C195.434 65.3493 195.742 65.6713 196.125 65.8859C196.508 66.0913 196.928 66.1939 197.385 66.1939ZM206.732 59.3759C207.665 59.3759 208.421 59.6606 209 60.2299C209.579 60.7899 209.868 61.6019 209.868 62.6659V67.1879H208.608V62.8479C208.608 62.0826 208.417 61.4993 208.034 61.0979C207.651 60.6873 207.129 60.4819 206.466 60.4819C205.794 60.4819 205.257 60.6919 204.856 61.1119C204.464 61.5319 204.268 62.1433 204.268 62.9459V67.1879H202.994V59.5159H204.268V60.6079C204.52 60.2159 204.861 59.9126 205.29 59.6979C205.729 59.4833 206.209 59.3759 206.732 59.3759ZM218.949 63.0579C218.949 63.3006 218.935 63.5573 218.907 63.8279H212.775C212.822 64.5839 213.078 65.1766 213.545 65.6059C214.021 66.0259 214.595 66.2359 215.267 66.2359C215.818 66.2359 216.275 66.1099 216.639 65.8579C217.012 65.5966 217.274 65.2513 217.423 64.8219H218.795C218.59 65.5593 218.179 66.1613 217.563 66.6279C216.947 67.0853 216.182 67.3139 215.267 67.3139C214.539 67.3139 213.886 67.1506 213.307 66.8239C212.738 66.4973 212.29 66.0353 211.963 65.4379C211.636 64.8313 211.473 64.1313 211.473 63.3379C211.473 62.5446 211.632 61.8493 211.949 61.2519C212.266 60.6546 212.71 60.1973 213.279 59.8799C213.858 59.5533 214.52 59.3899 215.267 59.3899C215.995 59.3899 216.639 59.5486 217.199 59.8659C217.759 60.1833 218.188 60.6219 218.487 61.1819C218.795 61.7326 218.949 62.3579 218.949 63.0579ZM217.633 62.7919C217.633 62.3066 217.526 61.8913 217.311 61.5459C217.096 61.1913 216.802 60.9253 216.429 60.7479C216.065 60.5613 215.659 60.4679 215.211 60.4679C214.567 60.4679 214.016 60.6733 213.559 61.0839C213.111 61.4946 212.854 62.0639 212.789 62.7919H217.633ZM227.239 59.5159L222.619 70.7999H221.303L222.815 67.1039L219.721 59.5159H221.135L223.543 65.7319L225.923 59.5159H227.239ZM233.526 66.1519H236.942V67.1879H232.252V57.4299H233.526V66.1519ZM245.295 63.0579C245.295 63.3006 245.281 63.5573 245.253 63.8279H239.121C239.167 64.5839 239.424 65.1766 239.891 65.6059C240.367 66.0259 240.941 66.2359 241.613 66.2359C242.163 66.2359 242.621 66.1099 242.985 65.8579C243.358 65.5966 243.619 65.2513 243.769 64.8219H245.141C244.935 65.5593 244.525 66.1613 243.909 66.6279C243.293 67.0853 242.527 67.3139 241.613 67.3139C240.885 67.3139 240.231 67.1506 239.653 66.8239C239.083 66.4973 238.635 66.0353 238.309 65.4379C237.982 64.8313 237.819 64.1313 237.819 63.3379C237.819 62.5446 237.977 61.8493 238.295 61.2519C238.612 60.6546 239.055 60.1973 239.625 59.8799C240.203 59.5533 240.866 59.3899 241.613 59.3899C242.341 59.3899 242.985 59.5486 243.545 59.8659C244.105 60.1833 244.534 60.6219 244.833 61.1819C245.141 61.7326 245.295 62.3579 245.295 63.0579ZM243.979 62.7919C243.979 62.3066 243.871 61.8913 243.657 61.5459C243.442 61.1913 243.148 60.9253 242.775 60.7479C242.411 60.5613 242.005 60.4679 241.557 60.4679C240.913 60.4679 240.362 60.6733 239.905 61.0839C239.457 61.4946 239.2 62.0639 239.135 62.7919H243.979ZM250.714 59.3759C251.648 59.3759 252.404 59.6606 252.982 60.2299C253.561 60.7899 253.85 61.6019 253.85 62.6659V67.1879H252.59V62.8479C252.59 62.0826 252.399 61.4993 252.016 61.0979C251.634 60.6873 251.111 60.4819 250.448 60.4819C249.776 60.4819 249.24 60.6919 248.838 61.1119C248.446 61.5319 248.25 62.1433 248.25 62.9459V67.1879H246.976V59.5159H248.25V60.6079C248.502 60.2159 248.843 59.9126 249.272 59.6979C249.711 59.4833 250.192 59.3759 250.714 59.3759ZM255.456 63.3239C255.456 62.5399 255.614 61.8539 255.932 61.2659C256.249 60.6686 256.683 60.2066 257.234 59.8799C257.794 59.5533 258.419 59.3899 259.11 59.3899C259.707 59.3899 260.262 59.5299 260.776 59.8099C261.289 60.0806 261.681 60.4399 261.952 60.8879V56.8279H263.24V67.1879H261.952V65.7459C261.7 66.2033 261.326 66.5813 260.832 66.8799C260.337 67.1693 259.758 67.3139 259.096 67.3139C258.414 67.3139 257.794 67.1459 257.234 66.8099C256.683 66.4739 256.249 66.0026 255.932 65.3959C255.614 64.7893 255.456 64.0986 255.456 63.3239ZM261.952 63.3379C261.952 62.7593 261.835 62.2553 261.602 61.8259C261.368 61.3966 261.051 61.0699 260.65 60.8459C260.258 60.6126 259.824 60.4959 259.348 60.4959C258.872 60.4959 258.438 60.6079 258.046 60.8319C257.654 61.0559 257.341 61.3826 257.108 61.8119C256.874 62.2413 256.758 62.7453 256.758 63.3239C256.758 63.9119 256.874 64.4253 257.108 64.8639C257.341 65.2933 257.654 65.6246 258.046 65.8579C258.438 66.0819 258.872 66.1939 259.348 66.1939C259.824 66.1939 260.258 66.0819 260.65 65.8579C261.051 65.6246 261.368 65.2933 261.602 64.8639C261.835 64.4253 261.952 63.9166 261.952 63.3379ZM266.05 58.2699C265.808 58.2699 265.602 58.1859 265.434 58.0179C265.266 57.8499 265.182 57.6446 265.182 57.4019C265.182 57.1593 265.266 56.9539 265.434 56.7859C265.602 56.6179 265.808 56.5339 266.05 56.5339C266.284 56.5339 266.48 56.6179 266.638 56.7859C266.806 56.9539 266.89 57.1593 266.89 57.4019C266.89 57.6446 266.806 57.8499 266.638 58.0179C266.48 58.1859 266.284 58.2699 266.05 58.2699ZM266.666 59.5159V67.1879H265.392V59.5159H266.666ZM272.576 59.3759C273.509 59.3759 274.265 59.6606 274.844 60.2299C275.422 60.7899 275.712 61.6019 275.712 62.6659V67.1879H274.452V62.8479C274.452 62.0826 274.26 61.4993 273.878 61.0979C273.495 60.6873 272.972 60.4819 272.31 60.4819C271.638 60.4819 271.101 60.6919 270.7 61.1119C270.308 61.5319 270.112 62.1433 270.112 62.9459V67.1879H268.838V59.5159H270.112V60.6079C270.364 60.2159 270.704 59.9126 271.134 59.6979C271.572 59.4833 272.053 59.3759 272.576 59.3759ZM280.957 59.3899C281.62 59.3899 282.198 59.5346 282.693 59.8239C283.197 60.1133 283.57 60.4773 283.813 60.9159V59.5159H285.101V67.3559C285.101 68.0559 284.952 68.6766 284.653 69.2179C284.354 69.7686 283.925 70.1979 283.365 70.5059C282.814 70.8139 282.17 70.9679 281.433 70.9679C280.425 70.9679 279.585 70.7299 278.913 70.2539C278.241 69.7779 277.844 69.1293 277.723 68.3079H278.983C279.123 68.7746 279.412 69.1479 279.851 69.4279C280.29 69.7173 280.817 69.8619 281.433 69.8619C282.133 69.8619 282.702 69.6426 283.141 69.2039C283.589 68.7653 283.813 68.1493 283.813 67.3559V65.7459C283.561 66.1939 283.188 66.5673 282.693 66.8659C282.198 67.1646 281.62 67.3139 280.957 67.3139C280.276 67.3139 279.655 67.1459 279.095 66.8099C278.544 66.4739 278.11 66.0026 277.793 65.3959C277.476 64.7893 277.317 64.0986 277.317 63.3239C277.317 62.5399 277.476 61.8539 277.793 61.2659C278.11 60.6686 278.544 60.2066 279.095 59.8799C279.655 59.5533 280.276 59.3899 280.957 59.3899ZM283.813 63.3379C283.813 62.7593 283.696 62.2553 283.463 61.8259C283.23 61.3966 282.912 61.0699 282.511 60.8459C282.119 60.6126 281.685 60.4959 281.209 60.4959C280.733 60.4959 280.299 60.6079 279.907 60.8319C279.515 61.0559 279.202 61.3826 278.969 61.8119C278.736 62.2413 278.619 62.7453 278.619 63.3239C278.619 63.9119 278.736 64.4253 278.969 64.8639C279.202 65.2933 279.515 65.6246 279.907 65.8579C280.299 66.0819 280.733 66.1939 281.209 66.1939C281.685 66.1939 282.119 66.0819 282.511 65.8579C282.912 65.6246 283.23 65.2933 283.463 64.8639C283.696 64.4253 283.813 63.9166 283.813 63.3379Z" fill="black"/>
</svg>
